<svg>
    <symbol id="icon-time" xmlns="http://www.w3.org/2000/svg" width="24" height="24" viewBox="0 0 24 24" fill="none">
        <circle opacity="0.16" cx="12" cy="12" r="9" fill="#88A1DE"/>
        <circle cx="12" cy="12" r="9" stroke="#88A1DE" stroke-width="2" stroke-linecap="round" stroke-linejoin="round"/>
        <path d="M11 8V13H16" stroke="#88A1DE" stroke-width="2" stroke-linecap="round" stroke-linejoin="round"/>
    </symbol>
    <symbol id="icon-month" xmlns="http://www.w3.org/2000/svg" width="24" height="24" viewBox="0 0 24 24" fill="none">
        <path opacity="0.16" d="M4 8H20V18C20 19.1046 19.1046 20 18 20H6C4.89543 20 4 19.1046 4 18V8Z" fill="#88A1DE"/>
        <path d="M4 4H20V18C20 19.1046 19.1046 20 18 20H6C4.89543 20 4 19.1046 4 18V4Z" stroke="#88A1DE" stroke-width="2" stroke-linecap="round" stroke-linejoin="round"/>
        <path d="M4 8H20" stroke="#88A1DE" stroke-width="2" stroke-linecap="round" stroke-linejoin="round"/>
        <path d="M16 3V5" stroke="#88A1DE" stroke-width="2" stroke-linecap="round" stroke-linejoin="round"/>
        <path d="M8 3V5" stroke="#88A1DE" stroke-width="2" stroke-linecap="round" stroke-linejoin="round"/>
    </symbol>
    <symbol id="icon-new" xmlns="http://www.w3.org/2000/svg" width="24" height="24" viewBox="0 0 24 24" fill="none">
        <path d="M4 6H20M4 12H14M4 18H8" stroke="#050F28" stroke-width="2" stroke-linecap="round" stroke-linejoin="round"/>
        <path d="M14 16L18 20M18 20L22 16M18 20L18 4" stroke="white" stroke-width="2" stroke-linecap="round" stroke-linejoin="round"/>
    </symbol>
    <symbol  id="icon-old" xmlns="http://www.w3.org/2000/svg" width="24" height="24" viewBox="0 0 24 24" fill="none">
        <path d="M4 6H20M4 12H14M4 18H8" stroke="#050F28" stroke-width="2" stroke-linecap="round" stroke-linejoin="round"/>
        <path d="M14 8L18 4M18 4L22 8M18 4L18 20" stroke="#88A1DE" stroke-width="2" stroke-linecap="round" stroke-linejoin="round"/>
    </symbol>
    <symbol id="icon-error" xmlns="http://www.w3.org/2000/svg" width="24" height="24" viewBox="0 0 24 24" fill="none">
        <circle opacity="0.16" cx="12" cy="12" r="9" fill="#FF832A"/>
        <circle cx="12" cy="12" r="9" stroke="#FF832A" stroke-width="2" stroke-linecap="round" stroke-linejoin="round"/>
        <rect x="12" y="16" width="0.01" height="0.01" stroke="#FF832A" stroke-width="3" stroke-linejoin="round"/>
        <path d="M12 12L12 8" stroke="#FF832A" stroke-width="2" stroke-linecap="round" stroke-linejoin="round"/>
    </symbol>
    <symbol id="icon-close" xmlns="http://www.w3.org/2000/svg" width="38" height="38" viewBox="0 0 38 38" fill="none">
        <path d="M11.0834 11.0835L26.9167 26.9168M11.0834 26.9168L26.9167 11.0835" stroke="#050F28" stroke-width="3.16667" stroke-linecap="round" stroke-linejoin="round"/>
    </symbol>   
</svg>

